/* XPM */
static const char *allstates_xpm[] = {
/* width height ncolors chars_per_pixel */
"16 16 5 1",
/* colors */
"A c #000000008080",
"B c #8989A9A9DFDF",
"C c #A0A0A0A0A4A4",
"D c None",
"E c #E2E2EAEAF8F8",
/* pixels */
"DDDDDDDDDDDDDDDD",
"DDDDDDDDDDDDDDDD",
"DDDDDDDDDDDDDDDD",
"DAAAADAAAADAAAAD",
"DACCADAEEADABBAD",
"DACCADAEEADABBAD",
"DAAAADAAAADAAAAD",
"DDDDDDDDDDDDDDDD",
"DDDDDDDDDDDDDDDD",
"DAAAADAAAADAAAAD",
"DADDADADDADADDAD",
"DADDADADDADADDAD",
"DAAAADAAAADAAAAD",
"DDDDDDDDDDDDDDDD",
"DDDDDDDDDDDDDDDD",
"DDDDDDDDDDDDDDDD"};
