/* XPM */
static const char *cross_curs_xpm[] =
{
/* width height ncolors chars_per_pixel */
"16 16 3 1",
/* colors */
"A c #FFFFFFFFFFFF",
"B c None",
"C c #000000000000",
/* pixels */
"BBBBBBAAABBBBBBB",
"BBBBBBACABBBBBBB",
"BBBBBBACABBBBBBB",
"BBBBBBACABBBBBBB",
"BBBBBBACABBBBBBB",
"BBBBBBACABBBBBBB",
"AAAAAAACAAAAAAAB",
"ACCCCCCCCCCCCCAB",
"AAAAAAACAAAAAAAB",
"BBBBBBACABBBBBBB",
"BBBBBBACABBBBBBB",
"BBBBBBACABBBBBBB",
"BBBBBBACABBBBBBB",
"BBBBBBACABBBBBBB",
"BBBBBBAAABBBBBBB",
"BBBBBBBBBBBBBBBB"
};
