/* XPM */
static const char *appicon_xpm[] =
{
/* columns rows colors chars-per-pixel */
"32 32 203 2",
"   c None",
".  c #7B5400",
"X  c #7A5613",
"o  c #7D5A15",
"O  c #785516",
"+  c #843F00",
"@  c #8E5600",
"#  c #8C5B01",
"$  c #815A0D",
"%  c #815900",
"&  c #815D14",
"*  c #815E1B",
"=  c #946904",
"-  c #91660D",
";  c #946C0C",
":  c #876317",
">  c #83601D",
",  c #956E1C",
"<  c #956E15",
"1  c #9C7415",
"2  c #9F7817",
"3  c #96731D",
"4  c #9A751A",
"5  c #A67400",
"6  c #AC7C04",
"7  c #AD7E0B",
"8  c #A37A15",
"9  c #A3791E",
"0  c #A87B17",
"q  c #8E6D21",
"w  c #967020",
"e  c #997421",
"r  c #9E7C21",
"t  c #97792C",
"y  c #937631",
"u  c #A67C22",
"i  c #A87F23",
"p  c #B18100",
"a  c #AF8112",
"s  c #A5821F",
"d  c #AC821C",
"f  c #B38513",
"g  c #B78813",
"h  c #B98A14",
"j  c #B2861C",
"k  c #B78D1F",
"l  c #B88C1C",
"z  c #BE951E",
"x  c #9F822F",
"c  c #A98424",
"v  c #AB8A23",
"b  c #AB8429",
"n  c #A58227",
"m  c #B28722",
"M  c #B48B21",
"N  c #B48D28",
"B  c #BC9223",
"V  c #BB952A",
"C  c #BB9729",
"Z  c #AB8C37",
"A  c #AD9238",
"S  c #BD9B33",
"D  c #B9963C",
"F  c #BA9835",
"G  c #C4931C",
"H  c #C9971F",
"J  c #CD9C1D",
"K  c #D09E1D",
"L  c #C8A01F",
"P  c #D5A31E",
"I  c #DAA51F",
"U  c #DCA81F",
"Y  c #E0AE1F",
"T  c #C49625",
"R  c #C49C23",
"E  c #CC9D23",
"W  c #CB9C2B",
"Q  c #C99721",
"!  c #D09E21",
"~  c #D09F29",
"^  c #C3A325",
"/  c #CBA323",
"(  c #CDA229",
")  c #D5A423",
"_  c #DAA621",
"`  c #DDAA24",
"'  c #D2A32B",
"]  c #DCAA2B",
"[  c #D6A829",
"{  c #DDB22A",
"}  c #DCB427",
"|  c #CFA633",
" . c #C7A93C",
".. c #C2A637",
"X. c #D7AE34",
"o. c #DCAC32",
"O. c #D0A330",
"+. c #DCB435",
"@. c #DBB63A",
"#. c #DDBA3C",
"$. c #E4AD22",
"%. c #E0AD2D",
"&. c #E3B423",
"*. c #E6BC26",
"=. c #EABD24",
"-. c #E4BF2B",
";. c #EABE2C",
":. c #E4B72F",
">. c #E1B334",
",. c #E6BA35",
"<. c #E9BE34",
"1. c #E5BC39",
"2. c #E9BE39",
"3. c #E2B538",
"4. c #EDC426",
"5. c #EEC629",
"6. c #EEC82B",
"7. c #E6C02D",
"8. c #F3CB26",
"9. c #F3CD2B",
"0. c #F1C72A",
"q. c #F7D027",
"w. c #F4D12B",
"e. c #FAD62B",
"r. c #FEDB2B",
"t. c #ECC335",
"y. c #ECC937",
"u. c #ECC43B",
"i. c #EFC93B",
"p. c #F2CC33",
"a. c #F1CC3C",
"s. c #F0C734",
"d. c #F5D335",
"f. c #F9D532",
"g. c #FDDC32",
"h. c #F4D23C",
"j. c #FBDB3B",
"k. c #F9D73E",
"l. c #FFE135",
"z. c #FFE03B",
"x. c #9F8542",
"c. c #A28743",
"v. c #AD964C",
"b. c #B99642",
"n. c #AD985A",
"m. c #BBA24D",
"M. c #BCA452",
"N. c #AE9962",
"B. c #C4A944",
"V. c #C4AC4F",
"C. c #C9AC4C",
"Z. c #CAB249",
"A. c #C2AC5B",
"S. c #C1AD68",
"D. c #CCB867",
"F. c #D8BA67",
"G. c #CAB978",
"H. c #DFC149",
"J. c #DFC059",
"K. c #E6C848",
"L. c #EDCC43",
"P. c #F1CD41",
"I. c #F5D343",
"U. c #FBDC45",
"Y. c #F5D449",
"T. c #F6D84F",
"R. c #FADC4D",
"E. c #F7D742",
"W. c #E5C85B",
"Q. c #ECD256",
"!. c #F6DA52",
"~. c #FADD53",
"^. c #FADE5A",
"/. c #F5DB59",
"(. c #FFE343",
"). c #FEE34D",
"_. c #FEE351",
"`. c #FFE851",
"'. c #FEE45C",
"]. c #D9C167",
"[. c #EEDA76",
"{. c #E9D67C",
"}. c #FEE562",
"|. c #FFEA65",
" X c #FDE46A",
".X c #FFE96B",
"XX c #FEE771",
"oX c #FFEA75",
"OX c #FFEC79",
"+X c #E5D387",
"@X c #EDDE9B",
"#X c #FFEC84",
"$X c #FFED8F",
"%X c #F9E488",
"&X c #FFF087",
"*X c #FFF08A",
"=X c #FFEE94",
"-X c #FEEE9A",
";X c #FFF194",
":X c #FFF299",
">X c #FEEFA0",
",X c #FFF3A3",
"<X c #FFF5AA",
/* pixels */
"                                                                ",
"      -.6.9.9.9.9.w.w.9.9.9.9.6.6.5.*.*.&.} ` ` ' ' ' ' '       ",
"    9.r.e.e.r.r.r.r.r.r.r.r.e.e.q.8.8.5.=.=.&.Y U I I I $.$.    ",
"  7.r.e.e.r.r.g.l.g.l.l.g.r.r.e.e.9.9.5.5.=.&.&.U I I I I $.'   ",
"  6.e.e.r.g.g.(.E.).U.U.(.d.l.r.w.e.6.9.5.=.=.` $.I P I I I '   ",
"  9.e.g.g.J s +.6 ..' s +.7 ^ P 8 } 7 R 9.6.` a j J 1 J I I '   ",
"  p.g.g.j.r t B.* m.Z y B.* S c 3 ^ o C 9.0.L o d 8 * J I I '   ",
"  d.g.j.).#.C. XD [.W.C. XS Q.1./ f.z -.9.6.;.k ' ' j _ I I '   ",
"  d.g.(.!.5 & D @ x.p % D @ x f $ B # v f.9.J - 3 f & H I I '   ",
"  d.z.).'.V.A.{.n.+XG.S.{.v.W.Z...y.v { d.9.{ 4 ' M 0 _ I I '   ",
"  h.(._.}.oX#X;X,X<X<X,X;X&XoX|.`.(.j.f.p.p.&.f k K 8 ! I I '   ",
"  h.(._.}.OX*X=X,X<X,X>X=X#XoX}._.U.j.d.p.p./ X c 2 * ! I I '   ",
"  h.(._.|.W.].%XF.@X<X>X=X#XoX}._.U.j.d.p.p.;.k [ ' j _ I I '   ",
"  h.U._./.5 $ b.+ N.<X-X$X#XoX}._.U.k.h.p.p.W - 3 f & Q I I '   ",
"  h.U.U.'.B.M.[.c.+X:X=X#XOX X'.).U.h.h.p.s.{ 3 ( M 0 _ I I '   ",
"  a.U.U.~.' Z J.f D.*X#XOX.X}._.U.U.h.a.y.t.{ f M K 8 ! I I '   ",
"  i.E.U.T.r y B.. V.OXXX X}.'.~.U.I.h.a.t.t.R X i 4 * W _ I '   ",
"  i.h.I.U.@. .^.S Q..X}.}.'.~.U.I.h.a.i.t.<.:.k ' W j _ _ I '   ",
"  u.a.I.L.6 : V # A '.^.^.~.U.Y.I.a.i.t.<.<.R ; , f o H _ I '   ",
"  u.a.a.I.S F K.t H.~.!.~.Y.Y.I.a.i.u.t.,.,.' e T j 0 P _ I '   ",
"  1.u.i.u./ v +.g  .U.Y.Y.I.P.a.u.u.t.,.,.>.>.%.] ` _ _ I I '   ",
"  ,.u.u.u.4 q V X F I.P.P.P.a.u.u.u.2.,.>.>.] ] ` _ _ _ I I '   ",
"  +.,.1.u.[ C u.B @.a.u.u.( +.>.( ,.W ' ] T ] H J P H I I I '   ",
"  +.>.,.+.7 : M = n u.u.W # e a o j = , a & d ; , f o H I I '   ",
"  o.>.>.>.N b X.e | 2.2.X.e | N c O.w W M 0 W , H j 0 _ _ I '   ",
"  ] o.o.o.J d ' h V 1.3.] h N ! 0 W h m K 8 J h j J 8 ! _ I '   ",
"  ] ] ] ] < : m X b >.>.T X u 1 * j o 0 1 * j o 9 1 O J _ I '   ",
"  ' ] ] ] ' ' o.W o.o.o.o.W ] ' ~ ] W _ ! J I H _ K J _ _ I '   ",
"  ' $.` [ ] ] ] ] ] ] ] ] ] ] ] ` _ ` _ _ I I I _ _ U I I $.'   ",
"    ` $._ _ _ ` _ ` ` ` ` _ _ _ _ _ I I I I I I I I I I $.$.    ",
"      ' ' ' ' ' ' ' ' ' ' ' ' ' ' ' ' ' ' ' ' ' ' ' ' ' '       ",
"                                                                "
};
