/* XPM */
static char *algo_xpm[] = {
/* width height ncolors chars_per_pixel */
"16 16 9 1",
/* colors */
"A c #000000008080",
"B c #6B6B9494D7D7",
"C c #9A9AB6B6E4E4",
"D c #A8A8C0C0E8E8",
"E c None",
"F c #C4C4D5D5F0F0",
"G c #D2D2DFDFF4F4",
"H c #DCDCE6E6F6F6",
"I c #E2E2EAEAF8F8",
/* pixels */
"EEEEEDAAACEEEEEE",
"EEEECAFHFACEEEEE",
"EEEEABHHHBACEEEE",
"EEECAHHHHHACEEEE",
"EEEABHHAHHBACEEE",
"EEEAFHHAHHFACEEE",
"EEEAHHHGHHHACEEE",
"EEEAHHHHHHHACEEE",
"EEEAHHHAHHHACEEE",
"EEEAHHHAHHHACEEE",
"EEEAHHIAHHHACEEE",
"EEEAAAAAAAAACEEE",
"EEEEEEEEEEEEEEEE",
"EEEEEAAAAACEEEEE",
"EEEEEEAAACEEEEEE",
"EEEEEEEACEEEEEEE"};
