/* XPM */
static char *controls_xpm[] = {
/* width height ncolors chars_per_pixel */
"60 100 4 1",
/* colors */
"A c #00000000C8C8",
"B c #8989A9A9DFDF",
"C c #C4C4D5D5F0F0",
"D c #000000000000",
/* pixels */
"DDDDDDDDDDDDDDDDDDDDDDDDDDDDDDDDDDDDDDDDDDDDDDDDDDDDDDDDDDDD",
"DDDDDDDDDDDDDDDDDDDDDDDDDDDDDDDDDDDDDDDDDDDDDDDDDDDDDDDDDDDD",
"DDDDAAAAAAAAAAAADDDDDDDDAAAAAAAAAAAADDDDDDDDAAAAAAAAAAAADDDD",
"DDDABBBBBBBBBBBBADDDDDDABBBBBBBBBBBBADDDDDDABBBBBBBBBBBBADDD",
"DDABBCCCCCCCCCCBBADDDDABBCCCCCCCCCCBBADDDDABBCCCCCCCCCCBBADD",
"DDABCCCCCCCCCCCCBADDDDABCCCCCCCCCCCCBADDDDABCCCCCCCCCCCCBADD",
"DDABCCCCCAACCCCCBADDDDABCCCCCCAAACCCBADDDDABCCCAAACCCCCCBADD",
"DDABCCCCAAACCCCCBADDDDABCCCCCAAABCCCBADDDDABCCCBAAACCCCCBADD",
"DDABCCCCAAACCCCCBADDDDABCCCCAAABCCCCBADDDDABCCCCBAAACCCCBADD",
"DDABCCCCCAACCCCCBADDDDABCCCAAABCCCCCBADDDDABCCCCCBAAACCCBADD",
"DDABCCCCCAACCCCCBADDDDABCCCAAABCCCCCBADDDDABCCCCCBAAACCCBADD",
"DDABCCCCCAACCCCCBADDDDABCCCCAAABCCCCBADDDDABCCCCBAAACCCCBADD",
"DDABCCCCAAAACCCCBADDDDABCCCCCAAABCCCBADDDDABCCCBAAACCCCCBADD",
"DDABCCCCAAAACCCCBADDDDABCCCCCCAAACCCBADDDDABCCCAAACCCCCCBADD",
"DDABCCCCCCCCCCCCBADDDDABCCCCCCCCCCCCBADDDDABCCCCCCCCCCCCBADD",
"DDABBCCCCCCCCCCBBADDDDABBCCCCCCCCCCBBADDDDABBCCCCCCCCCCBBADD",
"DDDABBBBBBBBBBBBADDDDDDABBBBBBBBBBBBADDDDDDABBBBBBBBBBBBADDD",
"DDDDAAAAAAAAAAAADDDDDDDDAAAAAAAAAAAADDDDDDDDAAAAAAAAAAAADDDD",
"DDDDDDDDDDDDDDDDDDDDDDDDDDDDDDDDDDDDDDDDDDDDDDDDDDDDDDDDDDDD",
"DDDDDDDDDDDDDDDDDDDDDDDDDDDDDDDDDDDDDDDDDDDDDDDDDDDDDDDDDDDD",
"DDDDDDDDDDDDDDDDDDDDDDDDDDDDDDDDDDDDDDDDDDDDDDDDDDDDDDDDDDDD",
"DDDDDDDDDDDDDDDDDDDDDDDDDDDDDDDDDDDDDDDDDDDDDDDDDDDDDDDDDDDD",
"DDDDAAAAAAAAAAAADDDDDDDDAAAAAAAAAAAADDDDDDDDAAAAAAAAAAAADDDD",
"DDDABBBBBBBBBBBBADDDDDDABBBBBBBBBBBBADDDDDDABBBBBBBBBBBBADDD",
"DDABBCCCCCCCCCCBBADDDDABBCCCCCCCCCCBBADDDDABBCCCCCCCCCCBBADD",
"DDABCCCCCCCCCCCCBADDDDABCCCCCCCCCCCCBADDDDABCCCCCCCCCCCCBADD",
"DDABCCCAAAAAACCCBADDDDABCCCCCCCCCCCCBADDDDABCCCCCAACCCCCBADD",
"DDABCCCAAAAAACCCBADDDDABCCCCCCCCCCCCBADDDDABCCCCCAACCCCCBADD",
"DDABCCCAACCCCCCCBADDDDABCCCCCCCCCCCCBADDDDABCCCCCAACCCCCBADD",
"DDABCCCAAAAACCCCBADDDDABCCAAAAAAAACCBADDDDABCCAAAAAAAACCBADD",
"DDABCCCAAAAACCCCBADDDDABCCAAAAAAAACCBADDDDABCCAAAAAAAACCBADD",
"DDABCCCAACCCCCCCBADDDDABCCCCCCCCCCCCBADDDDABCCCCCAACCCCCBADD",
"DDABCCCAACCCCCCCBADDDDABCCCCCCCCCCCCBADDDDABCCCCCAACCCCCBADD",
"DDABCCCAACCCCCCCBADDDDABCCCCCCCCCCCCBADDDDABCCCCCAACCCCCBADD",
"DDABCCCCCCCCCCCCBADDDDABCCCCCCCCCCCCBADDDDABCCCCCCCCCCCCBADD",
"DDABBCCCCCCCCCCBBADDDDABBCCCCCCCCCCBBADDDDABBCCCCCCCCCCBBADD",
"DDDABBBBBBBBBBBBADDDDDDABBBBBBBBBBBBADDDDDDABBBBBBBBBBBBADDD",
"DDDDAAAAAAAAAAAADDDDDDDDAAAAAAAAAAAADDDDDDDDAAAAAAAAAAAADDDD",
"DDDDDDDDDDDDDDDDDDDDDDDDDDDDDDDDDDDDDDDDDDDDDDDDDDDDDDDDDDDD",
"DDDDDDDDDDDDDDDDDDDDDDDDDDDDDDDDDDDDDDDDDDDDDDDDDDDDDDDDDDDD",
"DDDDDDDDDDDDDDDDDDDDDDDDDDDDDDDDDDDDDDDDDDDDDDDDDDDDDDDDDDDD",
"DDDDDDDDDDDDDDDDDDDDDDDDDDDDDDDDDDDDDDDDDDDDDDDDDDDDDDDDDDDD",
"DDDDDDDDDDDDDDDDDDDDDDDDDDDDDDDDDDDDDDDDDDDDDDDDDDDDDDDDDDDD",
"DDDDDDDDDDDDDDDDDDDDDDDDDDDDDAADDDDDDDDDDDDDDDDDDDDDDDDDDDDD",
"DDDDAAAAAAAAAAAADDDDDDDDDDDDABBADDDDDDDDDDDDAAAAAAAAAAAADDDD",
"DDDDABBBBBBBBBADDDDDDDDDDDDABBBBADDDDDDDDDDDDABBBBBBBBBADDDD",
"DDDDABCCCCCCBADDDDDDDDDDDDABBCCBBADDDDDDDDDDDDABCCCCCCBADDDD",
"DDDDABCCCCCCBBADDDDDDDDDDABBCCCCBBADDDDDDDDDDABBCCCCCCBADDDD",
"DDDDABCCCCCCCBBADDDDDDDDABBCCCCCCBBADDDDDDDDABBCCCCCCCBADDDD",
"DDDDABCCCCCCCCBBADDDDDDABBCCCCCCCCBBADDDDDDABBCCCCCCCCBADDDD",
"DDDDABCCCCCCCCCBBADDDDAAABCCCCCCCCBAAADDDDABBCCCCCCCCCBADDDD",
"DDDDABCCCCCCCCBBADDDDDDDABCCCCCCCCBADDDDDDDABBCCCCCCCCBADDDD",
"DDDDABBBCCCCCBBADDDDDDDDABCCCCCCCCBADDDDDDDDABBCCCCCBBBADDDD",
"DDDDABABBCCCBBADDDDDDDDDABCCCCCCCCBADDDDDDDDDABBCCCBBABADDDD",
"DDDDAADABBCBBADDDDDDDDDDABBBBBBBBBBADDDDDDDDDDABBCBBADAADDDD",
"DDDDADDDABBBADDDDDDDDDDDAAAAAAAAAAAADDDDDDDDDDDABBBADDDADDDD",
"DDDDDDDDDABADDDDDDDDDDDDDDDDDDDDDDDDDDDDDDDDDDDDABADDDDDDDDD",
"DDDDDDDDDDADDDDDDDDDDDDDDDDDDDDDDDDDDDDDDDDDDDDDDADDDDDDDDDD",
"DDDDDDDDDDDDDDDDDDDDDDDDDDDDDDDDDDDDDDDDDDDDDDDDDDDDDDDDDDDD",
"DDDDDDDDDDDDDDDDDDDDDDDDDDDDDDDDDDDDDDDDDDDDDDDDDDDDDDDDDDDD",
"DDDDDDDDDDDDDDDDDDDDDDDDDDDDDDDDDDDDDDDDDDDDDDDDDDDDDDDDDDDD",
"DDDDDDDDDDDDDDDDDDDDDDDDDDDDDDDDDDDDDDDDDDDDDDDDDDDDDDDDDDDD",
"DDDDDDDDDDADDDDDDDDDDDDDAAAAAAAAAAAADDDDDDDDDDDDDADDDDDDDDDD",
"DDDDDDDDDAADDDDDDDDDDDDABBBBBBBBBBBBADDDDDDDDDDDDAADDDDDDDDD",
"DDDDDDDDABAAAAAADDDDDDABBCCCCCCCCCCBBADDDDDDAAAAAABADDDDDDDD",
"DDDDDDDABBBBBBBADDDDDDABCCCCCCCCCCCCBADDDDDDABBBBBBBADDDDDDD",
"DDDDDDABBCCCCCBADDDDDDABCCAACCCCAACCBADDDDDDABCCCCCBBADDDDDD",
"DDDDDABBCCCCCCBADDDDDDABCCAAACCAAACCBADDDDDDABCCCCCCBBADDDDD",
"DDDDABBCCCCCCCBADDDDDDABCCAAAAAAAACCBADDDDDDABCCCCCCCBBADDDD",
"DDDABBCCCCCCCCBADDDDDDABCCAAAAAAAACCBADDDDDDABCCCCCCCCBBADDD",
"DDDABBCCCCCCCCBADDDDDDABCCAACAACAACCBADDDDDDABCCCCCCCCBBADDD",
"DDDDABBCCCCCCCBADDDDDDABCCAACCCCAACCBADDDDDDABCCCCCCCBBADDDD",
"DDDDDABBCCCCCCBADDDDDDABCCAACCCCAACCBADDDDDDABCCCCCCBBADDDDD",
"DDDDDDABBCCCCCBADDDDDDABCCAACCCCAACCBADDDDDDABCCCCCBBADDDDDD",
"DDDDDDDABBBBBBBADDDDDDABCCCCCCCCCCCCBADDDDDDABBBBBBBADDDDDDD",
"DDDDDDDDABAAAAAADDDDDDABBCCCCCCCCCCBBADDDDDDAAAAAABADDDDDDDD",
"DDDDDDDDDAADDDDDDDDDDDDABBBBBBBBBBBBADDDDDDDDDDDDAADDDDDDDDD",
"DDDDDDDDDDADDDDDDDDDDDDDAAAAAAAAAAAADDDDDDDDDDDDDADDDDDDDDDD",
"DDDDDDDDDDDDDDDDDDDDDDDDDDDDDDDDDDDDDDDDDDDDDDDDDDDDDDDDDDDD",
"DDDDDDDDDDDDDDDDDDDDDDDDDDDDDDDDDDDDDDDDDDDDDDDDDDDDDDDDDDDD",
"DDDDDDDDDDDDDDDDDDDDDDDDDDDDDDDDDDDDDDDDDDDDDDDDDDDDDDDDDDDD",
"DDDDDDDDDDDDDDDDDDDDDDDDDDDDDDDDDDDDDDDDDDDDDDDDDDDDDDDDDDDD",
"DDDDDDDDDDADDDDDDDDDDDDDDDDDDDDDDDDDDDDDDDDDDDDDDADDDDDDDDDD",
"DDDDDDDDDABADDDDDDDDDDDDDDDDDDDDDDDDDDDDDDDDDDDDABADDDDDDDDD",
"DDDDADDDABBBADDDDDDDDDDDAAAAAAAAAAAADDDDDDDDDDDABBBADDDADDDD",
"DDDDAADABBCBBADDDDDDDDDDABBBBBBBBBBADDDDDDDDDDABBCBBADAADDDD",
"DDDDABABBCCCBBADDDDDDDDDABCCCCCCCCBADDDDDDDDDABBCCCBBABADDDD",
"DDDDABBBCCCCCBBADDDDDDDDABCCCCCCCCBADDDDDDDDABBCCCCCBBBADDDD",
"DDDDABCCCCCCCCBBADDDDDDDABCCCCCCCCBADDDDDDDABBCCCCCCCCBADDDD",
"DDDDABCCCCCCCCCBBADDDDAAABCCCCCCCCBAAADDDDABBCCCCCCCCCBADDDD",
"DDDDABCCCCCCCCBBADDDDDDABBCCCCCCCCBBADDDDDDABBCCCCCCCCBADDDD",
"DDDDABCCCCCCCBBADDDDDDDDABBCCCCCCBBADDDDDDDDABBCCCCCCCBADDDD",
"DDDDABCCCCCCBBADDDDDDDDDDABBCCCCBBADDDDDDDDDDABBCCCCCCBADDDD",
"DDDDABCCCCCCBADDDDDDDDDDDDABBCCBBADDDDDDDDDDDDABCCCCCCBADDDD",
"DDDDABBBBBBBBBADDDDDDDDDDDDABBBBADDDDDDDDDDDDABBBBBBBBBADDDD",
"DDDDAAAAAAAAAAAADDDDDDDDDDDDABBADDDDDDDDDDDDAAAAAAAAAAAADDDD",
"DDDDDDDDDDDDDDDDDDDDDDDDDDDDDAADDDDDDDDDDDDDDDDDDDDDDDDDDDDD",
"DDDDDDDDDDDDDDDDDDDDDDDDDDDDDDDDDDDDDDDDDDDDDDDDDDDDDDDDDDDD",
"DDDDDDDDDDDDDDDDDDDDDDDDDDDDDDDDDDDDDDDDDDDDDDDDDDDDDDDDDDDD",
"DDDDDDDDDDDDDDDDDDDDDDDDDDDDDDDDDDDDDDDDDDDDDDDDDDDDDDDDDDDD"};
