/* XPM */
static char *draw_down_xpm[] =
{
/* width height ncolors chars_per_pixel */
"16 16 7 1",
/* colors */
"A c #FFFFFFFFFFFF",
"B c None",
"C c #2E2E5C5CA8A8",
"D c #8989A9A9DFDF",
"E c #E2E2EAEAF8F8",
"F c #F7F7F9F9FDFD",
"G c #A0A0A0A0A4A4",
/* pixels */
"BBBBBBBBBBBBBBBB",
"BBBBBBBBBCCCBBBB",
"BBBBBBBBCAAECBBB",
"BBBBBBBDCCEDCBBB",
"BBBBBBBCEECCCBBB",
"BBBBBBCEAAECGBBB",
"BBBBBDCAAFDCBBBB",
"BBBBBCEAFECBBBBB",
"BBBBDCAAECGBBBBB",
"BBBBCEAADCBBBBBB",
"BBBBCFAECGBBBBBB",
"BBBBCCECCBBBBBBB",
"BBBBCCCCBBBBBBBB",
"BBBBCCCBBBBBBBBB",
"BBBBCCBBBBBBBBBB",
"BBBBCBBBBBBBBBBB",
};
