/* XPM */
static char *hash_xpm[] =
{
/* width height ncolors chars_per_pixel */
"16 16 3 1",
/* colors */
"A c #FFFFFFFFFFFF",
"B c None",
"C c #2E2E5C5CA8A8",
/* pixels */
"BBBBBBBBBBBBBBBB",
"BBCCCCBBBBCCCCBB",
"BBCAACBBBBCAACBB",
"BBCAACBBBBCAACBB",
"BBCAACBBBBCAACBB",
"BBCAACBBBBCAACBB",
"BBCAACCCCCCAACBB",
"BBCAAAAAAAAAACBB",
"BBCAAAAAAAAAACBB",
"BBCAACCCCCCAACBB",
"BBCAACBBBBCAACBB",
"BBCAACBBBBCAACBB",
"BBCAACBBBBCAACBB",
"BBCAACBBBBCAACBB",
"BBCCCCBBBBCCCCBB",
"BBBBBBBBBBBBBBBB",
};
