/* XPM */
static char *hash_xpm[] =
{
/* width height ncolors chars_per_pixel */
"16 16 2 1",
/* colors */
"A c #000000008080",
"B c None",
/* pixels */
"BBBBBBBBBBBBBBBB",
"BBBBBBBBBBBBBBBB",
"BBBBBBAABBAABBBB",
"BBBBBBAABBAABBBB",
"BBBBBBAABBAABBBB",
"BBBAAAAAAAAAAABB",
"BBBAAAAAAAAAAABB",
"BBBBBAABBAABBBBB",
"BBBBBAABBAABBBBB",
"BBAAAAAAAAAAABBB",
"BBAAAAAAAAAAABBB",
"BBBBAABBAABBBBBB",
"BBBBAABBAABBBBBB",
"BBBBAABBAABBBBBB",
"BBBBBBBBBBBBBBBB",
"BBBBBBBBBBBBBBBB",
};
