/* XPM */
static char *hash_xpm[] =
{
/* width height ncolors chars_per_pixel */
"16 16 2 1",
/* colors */
"A c #000000008080",
"B c None",
/* pixels */
"BBBBBBBBBBBBBBBB",
"BBBBBBBBBBBBBBBB",
"BBBAABBBBBBAABBB",
"BBBAABBBBBBAABBB",
"BBBAABBBBBBAABBB",
"BBBAABBBBBBAABBB",
"BBBAABBBBBBAABBB",
"BBBAAAAAAAAAABBB",
"BBBAAAAAAAAAABBB",
"BBBAABBBBBBAABBB",
"BBBAABBBBBBAABBB",
"BBBAABBBBBBAABBB",
"BBBAABBBBBBAABBB",
"BBBAABBBBBBAABBB",
"BBBBBBBBBBBBBBBB",
"BBBBBBBBBBBBBBBB",
};
