/* XPM */
static char *hash_down_xpm[] =
{
/* width height ncolors chars_per_pixel */
"16 16 2 1",
/* colors */
"A c #000000008080",
"B c #DCDCE6E6F6F6",
/* pixels */
"AAAAAAAAAAAAAAAA",
"AAAAAAAAAAAAAAAA",
"AAABBAAAAAABBAAA",
"AAABBAAAAAABBAAA",
"AAABBAAAAAABBAAA",
"AAABBAAAAAABBAAA",
"AAABBAAAAAABBAAA",
"AAABBBBBBBBBBAAA",
"AAABBBBBBBBBBAAA",
"AAABBAAAAAABBAAA",
"AAABBAAAAAABBAAA",
"AAABBAAAAAABBAAA",
"AAABBAAAAAABBAAA",
"AAABBAAAAAABBAAA",
"AAAAAAAAAAAAAAAA",
"AAAAAAAAAAAAAAAA",
};
