/* XPM */
static char *hash_down_xpm[] =
{
/* width height ncolors chars_per_pixel */
"16 16 3 1",
/* colors */
"A c #000000003030",
"B c #74748585A0A0",
"C c #8C8C9696A6A6",
/* pixels */
"CCCCCCCCCCCCCCCC",
"CCCCCCCCCCCCCCCC",
"CCCCCCAABCAABCCC",
"CCCCCCAACCAACCCC",
"CCCCCCAACBAACCCC",
"CCCAAAAAAAAAAACC",
"CCCAAAAAAAAAAACC",
"CCCCCAABCAABCCCC",
"CCCCCAACCAACCCCC",
"CCAAAAAAAAAAACCC",
"CCAAAAAAAAAAACCC",
"CCCCAABCAACCCCCC",
"CCCCAACCAACCCCCC",
"CCCBAACBAACCCCCC",
"CCCCCCCCCCCCCCCC",
"CCCCCCCCCCCCCCCC",
};
