/* XPM */
static char *help_xpm[] =
{
/* width height ncolors chars_per_pixel */
"16 16 4 1",
/* colors */
"A c #000000008080",
"B c #47477777B0B0",
"C c #9E9EAFAFBEBE",
"D c None",
/* pixels */
"DDDDDDDDDDDDDDDD",
"DDDDDCAAAACDDDDD",
"DDDDCAABBAACDDDD",
"DDDDAACDDCAADDDD",
"DDDDAADDDDAADDDD",
"DDDDDDDDDCAADDDD",
"DDDDDDDDCAACDDDD",
"DDDDDDDCAACDDDDD",
"DDDDDDDAACDDDDDD",
"DDDDDDDAADDDDDDD",
"DDDDDDDAADDDDDDD",
"DDDDDDDDDDDDDDDD",
"DDDDDDDAADDDDDDD",
"DDDDDDDAADDDDDDD",
"DDDDDDDDDDDDDDDD",
"DDDDDDDDDDDDDDDD",
};
