/* XPM */
static char *help_xpm[] =
{
/* width height ncolors chars_per_pixel */
"16 16 210 2",
/* colors */
"AA c #191917171C1C",
"BA c #242421212929",
"CA c #272724242B2B",
"DA c #292926262D2D",
"EA c #3B3B37374242",
"FA c #3C3C36364040",
"GA c #414139394848",
"HA c #41413D3D4949",
"IA c #494942424F4F",
"JA c #4A4A43434C4C",
"KA c #51514B4B5959",
"LA c #707063637C7C",
"MA c #707067677373",
"NA c #79796D6D8888",
"OA c #818175758383",
"PA c #848479799494",
"AB c #84847A7A9191",
"BB c #858579798787",
"CB c #87877B7B9999",
"DB c #88887D7D9696",
"EB c #8A8A82829999",
"FB c #8C8C83839D9D",
"GB c #8D8D87879595",
"HB c #909089899999",
"IB c #90908C8C9595",
"JB c #91918D8D9696",
"KB c #92928888A2A2",
"LB c #92928F8F9797",
"MB c #94948E8E9B9B",
"NB c #95958A8AA0A0",
"OB c #95958D8D9F9F",
"PB c #959593939999",
"AC c #979790909A9A",
"BC c #979793939C9C",
"CC c #989897979898",
"DC c #9A9A8686BABA",
"EC c #9A9A99999A9A",
"FC c #9C9C9595A9A9",
"GC c #9C9C9A9A9F9F",
"HC c #9C9C9C9C9C9C",
"IC c #9D9D9090B1B1",
"JC c #9D9D9595AAAA",
"KC c #9D9D9797A6A6",
"LC c #9D9D9A9A9E9E",
"MC c #9E9E8F8FA1A1",
"NC c #9E9E9595A1A1",
"OC c #9E9E9797A9A9",
"PC c #9E9E9A9AA1A1",
"AD c #9F9F8F8FB3B3",
"BD c #9F9F9292A9A9",
"CD c #9F9F9B9BA7A7",
"DD c #A0A09393B6B6",
"ED c #A0A09F9FA2A2",
"FD c #A2A28B8BC8C8",
"GD c #A2A29292BCBC",
"HD c #A2A29797B5B5",
"ID c #A2A29F9FA2A2",
"JD c #A4A48D8DC5C5",
"KD c #A5A59E9EAFAF",
"LD c #A6A69898B7B7",
"MD c #A7A7A4A4ADAD",
"ND c #A7A7A7A7A7A7",
"OD c #A8A88B8BD7D7",
"PD c #A8A89A9AC1C1",
"AE c #A9A99898ACAC",
"BE c #A9A99F9FBABA",
"CE c #AAAAA0A0BBBB",
"DE c #ABABA6A6B1B1",
"EE c #ABABABABABAB",
"FE c #ACACABABADAD",
"GE c #AEAE9898C8C8",
"HE c #AEAEACACAFAF",
"IE c #B2B2ABABB2B2",
"JE c #B4B49898E2E2",
"KE c #B4B4AAAAC5C5",
"LE c #B4B4B1B1B8B8",
"ME c #B4B4B2B2B7B7",
"NE c #B5B5B3B3B6B6",
"OE c #B6B6AFAFC1C1",
"PE c #B6B6B0B0B6B6",
"AF c #B7B7AAAACBCB",
"BF c #B8B8A1A1D5D5",
"CF c #B8B8AAAACCCC",
"DF c #BABA9B9BEDED",
"EF c #BABAB9B9B9B9",
"FF c #BABABABABABA",
"GF c #BCBCA6A6D6D6",
"HF c #BCBCBABABEBE",
"IF c #BCBCBCBCBDBD",
"JF c #BEBEB2B2D0D0",
"KF c #BEBEBEBEBFBF",
"LF c #BFBFBFBFC0C0",
"MF c #C0C0AFAFC7C7",
"NF c #C0C0B5B5D3D3",
"OF c #C0C0C0C0BFBF",
"PF c None",
"AG c #C1C1B6B6C1C1",
"BG c #C2C2ADADD5D5",
"CG c #C4C4A6A6F2F2",
"DG c #C4C4AAAAECEC",
"EG c #C4C4ABABE7E7",
"FG c #C4C4ACACE9E9",
"GG c #C4C4C4C4C4C4",
"HG c #C5C5B8B8C5C5",
"IG c #C6C6B1B1DCDC",
"JG c #C6C6C7C7C6C6",
"KG c #C7C7AAAAECEC",
"LG c #C9C9B2B2E6E6",
"MG c #CACAABABFBFB",
"NG c #CBCBB1B1F7F7",
"OG c #CBCBBEBEE2E2",
"PG c #CCCCB4B4F5F5",
"AH c #CCCCB9B9EBEB",
"BH c #CCCCC3C3D9D9",
"CH c #CDCDBEBEE5E5",
"DH c #CDCDBFBFE4E4",
"EH c #CFCFB3B3F9F9",
"FH c #CFCFB4B4FCFC",
"GH c #CFCFB5B5F8F8",
"HH c #CFCFC5C5DEDE",
"IH c #D0D0B6B6FAFA",
"JH c #D0D0BEBED5D5",
"KH c #D2D2BCBCE1E1",
"LH c #D2D2BEBEF1F1",
"MH c #D3D3C5C5ECEC",
"NH c #D4D4B9B9FFFF",
"OH c #D5D5BDBDFDFD",
"PH c #D7D7C0C0E9E9",
"AI c #D7D7C3C3F9F9",
"BI c #D8D8BEBEFBFB",
"CI c #D9D9C0C0FEFE",
"DI c #D9D9C1C1F2F2",
"EI c #D9D9C3C3FAFA",
"FI c #DADAC0C0FEFE",
"GI c #DADAC7C7F6F6",
"HI c #DADAC7C7F7F7",
"II c #DADAC8C8F6F6",
"JI c #DBDBC1C1FEFE",
"KI c #DBDBCACAF7F7",
"LI c #DBDBCDCDF1F1",
"MI c #DCDCC1C1FFFF",
"NI c #DCDCC4C4FFFF",
"OI c #DCDCCDCDF5F5",
"PI c #DCDCD2D2EBEB",
"AJ c #DDDDC4C4FFFF",
"BJ c #DDDDCDCDF8F8",
"CJ c #DDDDCECEF3F3",
"DJ c #DEDEC6C6FFFF",
"EJ c #DEDECACAFDFD",
"FJ c #DEDECBCBFCFC",
"GJ c #DEDECECEF9F9",
"HJ c #DFDFC6C6FEFE",
"IJ c #DFDFC7C7FEFE",
"JJ c #DFDFCECEFAFA",
"KJ c #DFDFCFCFF8F8",
"LJ c #E0E0D6D6EFEF",
"MJ c #E1E1CACAF0F0",
"NJ c #E1E1CBCBFEFE",
"OJ c #E2E2C8C8FDFD",
"PJ c #E2E2CACAFEFE",
"AK c #E2E2D5D5F7F7",
"BK c #E3E3CFCFFFFF",
"CK c #E4E4CBCBFFFF",
"DK c #E4E4CCCCFDFD",
"EK c #E4E4CCCCFEFE",
"FK c #E4E4CDCDFDFD",
"GK c #E4E4CFCFEBEB",
"HK c #E4E4D7D7F8F8",
"IK c #E5E5CCCCFEFE",
"JK c #E5E5CFCFEFEF",
"KK c #E5E5D1D1FFFF",
"LK c #E6E6CDCDFFFF",
"MK c #E6E6D9D9F9F9",
"NK c #E7E7CFCFFEFE",
"OK c #E7E7CFCFFFFF",
"PK c #E7E7D2D2EFEF",
"AL c #E7E7DADAFAFA",
"BL c #E8E8DBDBFBFB",
"CL c #E9E9D5D5FFFF",
"DL c #EAEAD4D4F1F1",
"EL c #EBEBD3D3FDFD",
"FL c #EBEBD4D4FDFD",
"GL c #EBEBD4D4FEFE",
"HL c #EBEBD4D4FFFF",
"IL c #EBEBDFDFFEFE",
"JL c #ECECD4D4FFFF",
"KL c #ECECD5D5FEFE",
"LL c #ECECD6D6F3F3",
"ML c #EDEDD5D5FEFE",
"NL c #EDEDD6D6F6F6",
"OL c #EEEED5D5FFFF",
"PL c #EEEED7D7F6F6",
"AM c #EFEFD8D8FEFE",
"BM c #EFEFD9D9F2F2",
"CM c #F0F0D6D6FEFE",
"DM c #F0F0DADAFEFE",
"EM c #F2F2DADAFFFF",
"FM c #F3F3DCDCFEFE",
"GM c #F4F4DCDCFEFE",
"HM c #F5F5DDDDFFFF",
"IM c #F5F5DEDEFEFE",
"JM c #F6F6DEDEFEFE",
"KM c #F7F7DFDFFEFE",
"LM c #F7F7E0E0F9F9",
"MM c #F8F8E2E2FCFC",
"NM c #F9F9E2E2FEFE",
"OM c #FAFAE4E4FBFB",
"PM c #FCFCE5E5FEFE",
"AN c #FEFEE9E9FFFF",
"BN c #FFFFEAEAFFFF",
/* pixels */
"PFPFPFPFOFEDPBIBJBLBBCNEPFPFPFPF",
"PFPFPFMECDOEBHPILJHHKEJCMDPFPFPF",
"PFPFDEDDDHHKMKBLILALAKMHPDFCPFPF",
"PFLEGDAHOILINFBECEJFCJKJLHJDKDPF",
"IFICFGHIBJAFKAHACADAKBGJIIDGDCHF",
"KCFDGHGIGJCHCFOGHDAAEAJJKIPGODOC",
"EBJEFHEIFJBKKKCLLDBANAEJAINGDFFB",
"PACGNHFIHJCKIKBGGALADIDJOHIHMGCB",
"ABKGMIPJNKOLMJIAFAKHJLOKIJCIEHDB",
"GBBFAJEKGLEMJKMAMCNLAMHLNJNIEGHB",
"GCADBIDKFLFMDLOAAEPLDMMLFKJIGEPC",
"JGMBGFOJKLIMGKJABBLLGMCMLKLGNBGG",
"PFLFOBIGELHMKMMMPMNMJMEMPHBDHEPF",
"PFPFKFACMFPKLMANBNOMBMJHNCFEPFPF",
"PFPFPFEFECLCIEAGHGPEIDCCEFPFPFPF",
"PFPFPFPFPFFFEEHCHCNDFFPFPFPFPFPF",
};
