/* XPM */
static char *hyper_xpm[] = {
/* width height ncolors chars_per_pixel */
"16 16 3 1",
/* colors */
"A c #000000008080",
"B c #C0C0C0C0C0C0",
"C c None",
/* pixels */
"CCCCCCCCCCCCCCCC",
"CCCCCCCCCCCCCCAC",
"CCCCCCCCCCCCCAAC",
"CCCCCCCCCCCCAABC",
"CCCCCCACCCCAAACC",
"CCCCCAAACCAAABCC",
"CCCCBAAAAAAAACCC",
"CCCCAAAAAAAABCCC",
"CCCBAAAAAAAACCCC",
"CCCAAAAAAAABCCCC",
"CCBAAACCAAACCCCC",
"CCAAACCCCACCCCCC",
"CBAACCCCCCCCCCCC",
"CAACCCCCCCCCCCCC",
"CACCCCCCCCCCCCCC",
"CCCCCCCCCCCCCCCC"};
