/* XPM */
static char *info_xpm[] =
{
/* width height ncolors chars_per_pixel */
"16 16 12 1",
/* colors */
"A c #FFFFFFFFFFFF",
"B c None",
"C c #A6A6CACAF0F0",
"D c #3A3A7070CACA",
"E c #4A4A7C7CCECE",
"F c #55558484D1D1",
"G c #63638E8ED5D5",
"H c #8585A7A7DFDF",
"I c #9090AFAFE2E2",
"J c #A2A2BCBCE6E6",
"K c #C6C6D6D6F0F0",
"L c #D2D2DFDFF4F4",
/* pixels */
"BBBBJHFDDFHJBBBB",
"BBBHFDDGKIDFHBBB",
"BBHDDDDCAAGDDHBB",
"BHDDDDDIALGDDDHB",
"JFDDDDDDDDDDDDFJ",
"HDDDDEILAGDDDDDH",
"FDDDDGKAAIDDDDDF",
"DDDDDCGAAGDDDDDD",
"DDDDDECALFDDDDDD",
"FDDDDFLACEDDDDDF",
"HDDDDGAAGEDDDDDH",
"JFDDDCALGIDDDDFJ",
"BHDDDLALKGDDDDHB",
"BBHDDCACGDDDDHBB",
"BBBHFDDGDDDFHBBB",
"BBBBJHFDDFHJBBBB",
};
