/* XPM */
static const char *info_xpm[] =
{
/* width height ncolors chars_per_pixel */
"16 16 3 1",
/* colors */
"A c #000000008080",
"B c #9E9EAFAFBEBE",
"C c None",
/* pixels */
"CCCCCCCCCCCCCCCC",
"CCCCCCCCCCCCCCCC",
"CCCCCCCAACCCCCCC",
"CCCCCCCAACCCCCCC",
"CCCCCCCCCCCCCCCC",
"CCCCCCCBACCCCCCC",
"CCCCCCAAACCCCCCC",
"CCCCCCCAACCCCCCC",
"CCCCCCCAACCCCCCC",
"CCCCCCCAACCCCCCC",
"CCCCCCCAACCCCCCC",
"CCCCCCCAACCCCCCC",
"CCCCCCCAACCCCCCC",
"CCCCCCAAAACCCCCC",
"CCCCCCCCCCCCCCCC",
"CCCCCCCCCCCCCCCC",
};
