/* XPM */
static char *info_xpm[] =
{
/* width height ncolors chars_per_pixel */
"16 16 170 2",
/* colors */
"AA c #38385252D3D3",
"BA c #39395252D4D4",
"CA c #3B3B5353D1D1",
"DA c #3B3B5353D5D5",
"EA c #3C3C5454D5D5",
"FA c #3D3D5454D0D0",
"GA c #3D3D5555D1D1",
"HA c #3D3D5555D3D3",
"IA c #3D3D5656D4D4",
"JA c #3D3D5656D5D5",
"KA c #3E3E5656D6D6",
"LA c #40405757D1D1",
"MA c #40405757D2D2",
"NA c #40405757D6D6",
"OA c #40405858D2D2",
"PA c #40405858D3D3",
"AB c #40405858D7D7",
"BB c #41415757D2D2",
"CB c #41415858D4D4",
"DB c #41415858D6D6",
"EB c #41415959D3D3",
"FB c #42425858D1D1",
"GB c #42425959D2D2",
"HB c #42425959D3D3",
"IB c #42425A5AD3D3",
"JB c #42425A5AD5D5",
"KB c #43435A5AD4D4",
"LB c #43435B5BD5D5",
"MB c #44445B5BD2D2",
"NB c #44445C5CD6D6",
"OB c #44445C5CD7D7",
"PB c #45455C5CD4D4",
"AC c #45455C5CD9D9",
"BC c #46465D5DD2D2",
"CC c #46465D5DD3D3",
"DC c #46465E5ED9D9",
"EC c #47475E5ED4D4",
"FC c #47475E5ED5D5",
"GC c #48485D5DD1D1",
"HC c #48485E5ED4D4",
"IC c #48485F5FD3D3",
"JC c #48485F5FD8D8",
"KC c #49496060D5D5",
"LC c #49496060D8D8",
"MC c #4A4A6060D4D4",
"NC c #4A4A6060D5D5",
"OC c #4A4A6161D6D6",
"PC c #4B4B6161D4D4",
"AD c #4B4B6161D5D5",
"BD c #4B4B6161D6D6",
"CD c #4B4B6262DADA",
"DD c #4C4C6161D0D0",
"ED c #4C4C6262D4D4",
"FD c #4C4C6262D5D5",
"GD c #4C4C6262D6D6",
"HD c #4C4C6262D7D7",
"ID c #4C4C6262D8D8",
"JD c #4C4C6363D7D7",
"KD c #4C4C6363D9D9",
"LD c #4D4D6262D6D6",
"MD c #4D4D6363D6D6",
"ND c #4D4D6363D7D7",
"OD c #4D4D6363D8D8",
"PD c #4D4D6363D9D9",
"AE c #4D4D6464DBDB",
"BE c #4E4E6363D5D5",
"CE c #4E4E6464D7D7",
"DE c #4E4E6464D8D8",
"EE c #4E4E6565D6D6",
"FE c #4E4E6565DDDD",
"GE c #4F4F6565D5D5",
"HE c #4F4F6565D7D7",
"IE c #4F4F6666DCDC",
"JE c #50506767DEDE",
"KE c #51516666D3D3",
"LE c #51516767D8D8",
"ME c #52526868DBDB",
"NE c #52526868DDDD",
"OE c #53536969D8D8",
"PE c #55556A6AD8D8",
"AF c #55556A6ADDDD",
"BF c #59596C6CD0D0",
"CF c #5A5A6D6DD7D7",
"DF c #5A5A6E6ED6D6",
"EF c #5B5B6F6FDCDC",
"FF c #5C5C6E6ECFCF",
"GF c #5D5D7171D8D8",
"HF c #5D5D7171DBDB",
"IF c #5E5E7272DADA",
"JF c #5E5E7272DCDC",
"KF c #5F5F7373DADA",
"LF c #60607575DEDE",
"MF c #61617575DBDB",
"NF c #63637575D4D4",
"OF c #64647676CDCD",
"PF c #65657777D2D2",
"AG c #66667979DBDB",
"BG c #67677A7ADEDE",
"CG c #69697B7BDBDB",
"DG c #6B6B7E7EDBDB",
"EG c #6C6C7C7CD1D1",
"FG c #6C6C7E7EDEDE",
"GG c #6D6D7F7FDADA",
"HG c #6D6D7F7FDEDE",
"IG c #6F6F8080DCDC",
"JG c #6F6F8181DEDE",
"KG c #70708181D9D9",
"LG c #71718383DDDD",
"MG c #71718383E0E0",
"NG c #74748585DFDF",
"OG c #75758787E2E2",
"PG c #76768787DFDF",
"AH c #7B7B8A8AE1E1",
"BH c #80809090E3E3",
"CH c #82828F8FD7D7",
"DH c #82829191E3E3",
"EH c #82829292E1E1",
"FH c #82829292E4E4",
"GH c #84849090CFCF",
"HH c #85859393DCDC",
"IH c #8A8A9898E5E5",
"JH c #8E8E9C9CE6E6",
"KH c #9595A1A1E6E6",
"LH c #9696A3A3E7E7",
"MH c #9696A3A3E9E9",
"NH c #9797A1A1D4D4",
"OH c #9898A5A5E5E5",
"PH c #9A9AA7A7ECEC",
"AI c #9F9FAAAADFDF",
"BI c #A0A0ACACE9E9",
"CI c #A2A2ADADEAEA",
"DI c #A3A3AEAEE8E8",
"EI c #A8A8B3B3E9E9",
"FI c #A9A9B4B4EDED",
"GI c #ABABB2B2D9D9",
"HI c #ACACB2B2D2D2",
"II c #AFAFB4B4D4D4",
"JI c #B1B1B9B9DDDD",
"KI c #B1B1BABAEBEB",
"LI c #B2B2BCBCEDED",
"MI c #B4B4BBBBE3E3",
"NI c #B7B7C0C0F1F1",
"OI c #B8B8C1C1EFEF",
"PI c #B9B9C2C2EFEF",
"AJ c #BABABFBFDADA",
"BJ c #BCBCC4C4F1F1",
"CJ c #BEBEC6C6EFEF",
"DJ c #BFBFC4C4DDDD",
"EJ c #BFBFC8C8F1F1",
"FJ c None",
"GJ c #C0C0C8C8F0F0",
"HJ c #C3C3CACAF0F0",
"IJ c #C5C5CDCDF2F2",
"JJ c #C7C7CDCDF0F0",
"KJ c #C8C8CFCFF3F3",
"LJ c #C9C9CDCDE3E3",
"MJ c #C9C9CECEE3E3",
"NJ c #CCCCD2D2F2F2",
"OJ c #CECED3D3F3F3",
"PJ c #D2D2D6D6E8E8",
"AK c #D3D3D5D5E5E5",
"BK c #DCDCDEDEE8E8",
"CK c #DDDDDFDFEBEB",
"DK c #E1E1E4E4F7F7",
"EK c #E8E8EAEAF8F8",
"FK c #EDEDEFEFFCFC",
"GK c #F4F4F5F5FCFC",
"HK c #F8F8F9F9FDFD",
"IK c #F8F8F9F9FEFE",
"JK c #FFFFFFFFFEFE",
/* pixels */
"FJFJFJFJFJKIIHOGMGFHDIFJFJFJFJFJ",
"FJFJFJKJBHPEMENEIEIELEJGLIFJFJFJ",
"FJFJNILFAECENDDEEFJFHEPDAFPHFJFJ",
"FJHJHFIDMDEDNCIFOIOJCGPCNDMECIFJ",
"FJPGKDMDMDEDICKFIJDKIGMCFDODJFFJ",
"EILENDGDLDPCADMFJHAHBEPCGDMDAEKH",
"DHJEJDJDHDOCFGBJFKMHBDADJDJDFEHG",
"DGAENCNCKCEEEHPIJKLHHCICNCNCIDCF",
"GGCDECECECCCGFNJEKJGGBBCECECLCDF",
"HHJCPBPBPBGBLGGKGJOEHBMBPBPBDCKG",
"MIGEACLBJBKBBIIKFIBGFCIBLBNBOBAI",
"FJCHDBCBPAECJJHKEJAGOALAEBABNFFJ",
"FJPJPFKAHAGBOHCJNGMAFAGAJAKEJIFJ",
"FJFJMJEGLAAAIANADAEABACABFGIFJFJ",
"FJFJFJCKNHOFDDFBBBGCFFGHLJFJFJFJ",
"FJFJFJFJFJBKDJIIHIAJAKFJFJFJFJFJ",
};
