/* XPM */
static char *move_down_xpm[] =
{
/* width height ncolors chars_per_pixel */
"16 16 8 1",
/* colors */
"A c #FFFFFFFFFFFF",
"B c None",
"C c #2E2E5C5CA8A8",
"D c #52528282D0D0",
"E c #71719898D9D9",
"F c #A8A8C0C0E8E8",
"G c #D2D2DFDFF4F4",
"H c #E2E2EAEAF8F8",
/* pixels */
"BBBBBBBCCBBBBBBB",
"BBBCCBCADCCCBBBB",
"BBCHACCHFCHGCBBB",
"BBCDACCAFCAFCBCB",
"BBBCAFCADCAECCHC",
"BBBCAHCAHCAECADC",
"BCCBCGFAFAAFCHHC",
"CAACCAAAAAAHFAEC",
"CHAHCAAAAAHAHECB",
"BCEAHAAAAHAFAHCB",
"BBCAAAAAHAFAFDCB",
"BBCAHAAHAFAFHCBB",
"BBBCAHAAHAFADCBB",
"BBBBCAFAAFHFCBBB",
"BBBBBCAHAGFECBBB",
"BBBBBCFAFFGDCBBB",
};
