/* XPM */
static char *new_xpm[] =
{
/* width height ncolors chars_per_pixel */
"16 16 28 2",
/* colors */
"AA c #FFFFFFFFFFFF",
"BA c None",
"CA c #2E2E5C5CA8A8",
"DA c #35356969BFBF",
"EA c #3A3A7070CACA",
"FA c #43437777CDCD",
"GA c #48487B7BCECE",
"HA c #52528282D0D0",
"IA c #55558484D1D1",
"JA c #58588686D2D2",
"KA c #63638E8ED5D5",
"LA c #69699292D7D7",
"MA c #6B6B9494D7D7",
"NA c #71719898D9D9",
"OA c #8989A9A9DFDF",
"PA c #9A9AB6B6E4E4",
"AB c #A8A8C0C0E8E8",
"BB c #B8B8CCCCECEC",
"CB c #C4C4D5D5F0F0",
"DB c #D2D2DFDFF4F4",
"EB c #DCDCE6E6F6F6",
"FB c #E2E2EAEAF8F8",
"GB c #EAEAF0F0FAFA",
"HB c #F0F0F5F5FCFC",
"IB c #F5F5F8F8FDFD",
"JB c #F7F7F9F9FDFD",
"KB c #FAFAFCFCFEFE",
"LB c #FDFDFEFEFFFF",
/* pixels */
"BABAHAHAHAGAFAEADACANABABABABABA",
"BABAJACBCBBBABPAOAGAMAIABABABABA",
"BABAJADBCBCBBBABPAGAAAPAHABABABA",
"BABALADBDBCBCBBBABGAAAAAPAHABABA",
"BABALADBDBDBCBCBBBGAGAHAFAEABABA",
"BABANAEBEBEBDBDBCBBBABPAOAEABABA",
"BABANAGBGBGBEBEBDBCBBBABPAEABABA",
"BABANAIBIBGBGBFBEBDBCBBBABFABABA",
"BABANAIBIBIBHBGBFBEBDBCBBBGABABA",
"BABANAIBIBJBIBHBGBFBEBDBCBHABABA",
"BABANAAALBKBJBIBHBGBFBEBDBJABABA",
"BABANAAAAALBKBJBIBHBGBFBEBJABABA",
"BABANAAAAAAALBKBJBIBHBGBFBKABABA",
"BABANAAAAAAAAALBKBJBIBHBGBLABABA",
"BABANANANANANANANANANANANANABABA",
"BABABABABABABABABABABABABABABABA",
};
