/* XPM */
static char *scripts_xpm[] =
{
/* width height ncolors chars_per_pixel */
"16 16 17 1",
/* colors */
"A c #FFFFFFFFFFFF",
"B c None",
"C c #2E2E5C5CA8A8",
"D c #8989A9A9DFDF",
"E c #9A9AB6B6E4E4",
"F c #A8A8C0C0E8E8",
"G c #B8B8CCCCECEC",
"H c #C4C4D5D5F0F0",
"I c #D2D2DFDFF4F4",
"J c #DCDCE6E6F6F6",
"K c #E2E2EAEAF8F8",
"L c #EAEAF0F0FAFA",
"M c #F0F0F5F5FCFC",
"N c #F5F5F8F8FDFD",
"O c #F7F7F9F9FDFD",
"P c #FAFAFCFCFEFE",
"Q c #FDFDFEFEFFFF",
/* pixels */
"BCCCCBBBBBBBBBBB",
"CHHGFCBBBBBBBBBB",
"CCCCCCCCCCCCCCCB",
"CIIHHGGHHHGHGEDC",
"CIIIHHHIIIHIHFEC",
"CJJJIIIIJJIJIHFC",
"CLLLJJJJJKJKJIGC",
"CNNLKCCKKCLLCJHC",
"CNNNCAACNCMLCLIC",
"CNNOCAACNCMLCLJC",
"CAQPCNMCACMOCMKC",
"CACQCCCAAACCCMLC",
"CAAACPOAAAAACAAC",
"CAAACQPAACCCAAAC",
"CAAAAAAAAAAAAAAC",
"CCCCCCCCCCCCCCCC",
};
