/* XPM */
static char *select_down_xpm[] =
{
/* width height ncolors chars_per_pixel */
"16 16 3 1",
/* colors */
"A c #FFFFFFFFFFFF",
"B c None",
"C c #2E2E5C5CA8A8",
/* pixels */
"BBBBBBBBBBBBBBBB",
"BBBBBBBBBBBBBBBB",
"BCCACCCACCCACCCB",
"BCAAAAAAAAAAAACB",
"BAAAAAAAAAAAAAAB",
"BCAAAAAAAAAAAACB",
"BCAAAAAAAAAAAACB",
"BCAAAAAAAAAAAAAB",
"BAAAAAAAAAAAAACB",
"BCAAAAAAAAAAAACB",
"BCAAAAAAAAAAAACB",
"BAAAAAAAAAAAAAAB",
"BCAAAAAAAAAAAACB",
"BCCCACCCACCCACCB",
"BBBBBBBBBBBBBBBB",
"BBBBBBBBBBBBBBBB",
};
