/* XPM */
static const char *appicon_xpm[] =
{
/* width height ncolors chars_per_pixel */
"32 32 2 1",
/* colors */
"A c #FFFFFFFF0000",
"B c #00000000FFFF",
/* pixels */
"AAAAAAAAAAAAAAAAAAAAAAAAAAAAAAAA",
"AAAAAAAAAAAAAAAAAAAAAAAAAAAAAAAA",
"AAAAAAAAAAAAAAAAAAAAAAAAAAAAAAAA",
"AAABBABBABBABBABBABBAAAABBABBAAA",
"AAABBABBABBABBABBABBAAAABBABBAAA",
"AAAAAAAAAAAAAAAAAAAAAAAAAAAAAAAA",
"AAABBABBABBABBABBABBAAAABBABBAAA",
"AAABBABBABBABBABBABBAAAABBABBAAA",
"AAAAAAAAAAAAAAAAAAAAAAAAAAAAAAAA",
"AAAAAAAAAAAAAAAAAAAAAAAABBABBAAA",
"AAAAAAAAAAAAAAAAAAAAAAAABBABBAAA",
"AAAAAAAAAAAAAAAAAAAAAAAAAAAAAAAA",
"AAABBABBAAAAAAAAAAAAAAAABBABBAAA",
"AAABBABBAAAAAAAAAAAAAAAABBABBAAA",
"AAAAAAAAAAAAAAAAAAAAAAAAAAAAAAAA",
"AAABBABBAAAAAAAAAAAAAAAABBABBAAA",
"AAABBABBAAAAAAAAAAAAAAAABBABBAAA",
"AAAAAAAAAAAAAAAAAAAAAAAAAAAAAAAA",
"AAABBABBAAAAAAAAAAAAAAAABBABBAAA",
"AAABBABBAAAAAAAAAAAAAAAABBABBAAA",
"AAAAAAAAAAAAAAAAAAAAAAAAAAAAAAAA",
"AAABBABBAAAAAAAAAAAAAAAAAAAAAAAA",
"AAABBABBAAAAAAAAAAAAAAAAAAAAAAAA",
"AAAAAAAAAAAAAAAAAAAAAAAAAAAAAAAA",
"AAABBABBAAAABBABBABBABBABBABBAAA",
"AAABBABBAAAABBABBABBABBABBABBAAA",
"AAAAAAAAAAAAAAAAAAAAAAAAAAAAAAAA",
"AAABBABBAAAABBABBABBABBABBABBAAA",
"AAABBABBAAAABBABBABBABBABBABBAAA",
"AAAAAAAAAAAAAAAAAAAAAAAAAAAAAAAA",
"AAAAAAAAAAAAAAAAAAAAAAAAAAAAAAAA",
"AAAAAAAAAAAAAAAAAAAAAAAAAAAAAAAA",
};
