/* XPM */
static const char *allstates_down_xpm[] = {
/* width height ncolors chars_per_pixel */
"16 16 4 1",
/* colors */
"A c #000000004040",
"B c #494969699F9F",
"C c #606060606464",
"D c #8C8C9696A6A6",
/* pixels */
"DDDDDDDDDDDDDDDD",
"DDDDDDDDDDDDDDDD",
"DDDDDDDDDDDDDDDD",
"DAAAADAAAADAAAAD",
"DACCADADDADABBAD",
"DACCADADDADABBAD",
"DAAAADAAAADAAAAD",
"DDDDDDDDDDDDDDDD",
"DDDDDDDDDDDDDDDD",
"DAAAADAAAADAAAAD",
"DADDADADDADADDAD",
"DADDADADDADADDAD",
"DAAAADAAAADAAAAD",
"DDDDDDDDDDDDDDDD",
"DDDDDDDDDDDDDDDD",
"DDDDDDDDDDDDDDDD"};
